<?xml version="1.0" standalone="no"?><!DOCTYPE svg PUBLIC "-//W3C//DTD SVG 1.1//EN" "http://www.w3.org/Graphics/SVG/1.1/DTD/svg11.dtd"><svg t="1636509796469" class="icon" viewBox="0 0 1024 1024" version="1.1" xmlns="http://www.w3.org/2000/svg" p-id="5363" xmlns:xlink="http://www.w3.org/1999/xlink" width="200" height="200"><defs><style type="text/css"></style></defs><path d="M678.227637 997.979145c-51.188568 13.650285-86.849937 8.872685-100.500222-42.315883-13.735599-51.188568 33.613826-70.554909 84.973023-83.352052 221.902442-55.454282 316.174721-346.973176 256.710668-568.790303C862.762424 92.197436 640.348097-33.89707 412.644284 9.95447a512.226936 512.226936 0 0 1 593.44613 369.752089c73.284966 273.005695-88.982794 544.987619-327.862777 618.272586zM368.622115 134.854576c-239.135926 63.98571-324.791463 364.036032-265.32741 585.853159 56.733996 211.408785 279.148324 337.503291 506.766822 293.566437A512.226936 512.226936 0 0 1 16.700711 644.607398C-56.498941 371.516388 122.746361 82.386294 344.648803 34.780926c51.444511-11.005542 78.233195-25.935541 91.883479 25.253026 13.735599 51.188568-16.636285 61.085024-67.824852 74.820624z m240.159698 348.85009H711.58552a28.494969 28.494969 0 1 1 0 56.81931H569.110673V597.428601h142.474847a28.494969 28.494969 0 1 1 0 56.904625H569.110673v85.314279c0 15.697827-12.797142 28.409655-28.580284 28.409656h-56.989939a28.836227 28.836227 0 0 1-20.219484-8.3608 28.153712 28.153712 0 0 1-8.275485-20.048856v-85.314279H312.314691a28.836227 28.836227 0 0 1-20.219485-8.446114A28.494969 28.494969 0 0 1 312.314691 597.428601h142.474847v-56.904625h-142.474847a28.836227 28.836227 0 0 1-20.219485-8.360799 28.494969 28.494969 0 0 1 20.219485-48.458511h102.633078L286.720407 300.876164A28.409655 28.409655 0 0 1 310.096519 256.171482h44.619369c9.213942 0 17.915999 4.436343 23.205484 11.943999L491.559993 426.800041h40.780225L645.893525 268.115481A28.494969 28.494969 0 0 1 669.184323 256.171482h44.619369a28.494969 28.494969 0 0 1 23.376112 44.704682L608.867127 483.704666z" p-id="5364"></path></svg>